<?xml version="1.0" encoding="UTF-8"?>
<svg xmlns="http://www.w3.org/2000/svg" viewBox="0 0 200 50" width="200" height="50">
  <defs>
    <linearGradient id="directvBlue" x1="0%" y1="0%" x2="100%" y2="0%">
      <stop offset="0%" style="stop-color:#004990"/>
      <stop offset="100%" style="stop-color:#0070ba"/>
    </linearGradient>
  </defs>
  <!-- Blue background -->
  <rect x="0" y="0" width="200" height="50" rx="5" fill="url(#directvBlue)"/>
  <!-- White Text -->
  <g fill="#FFFFFF">
    <path d="M30 15h10c5.5 0 9 3.5 9 10s-3.5 10-9 10H30V15zm7 15c2.8 0 4.5-1.7 4.5-5s-1.7-5-4.5-5h-2v10h2z"/>
    <path d="M55 15h5v20h-5z"/>
    <path d="M65 15h5l8 11V15h5v20h-5l-8-11v11h-5z"/>
    <path d="M85 15h16v4h-11v4h9v4h-9v4h11v4H85z"/>
    <path d="M105 15h5l3 12 4-12h4l4 12 3-12h5l-6 20h-4l-4-12-4 12h-4z"/>
    <path d="M135 15h16v4h-11v4h9v4h-9v4h11v4h-16z"/>
  </g>
  <!-- Satellite Dish Icon -->
  <g transform="translate(15, 30) scale(0.5)" fill="#FFFFFF">
    <circle cx="10" cy="10" r="4"/>
    <path d="M10,0 C4.5,0 0,4.5 0,10 C0,15.5 4.5,20 10,20" fill="none" stroke="#FFFFFF" stroke-width="2"/>
    <path d="M10,5 C7.2,5 5,7.2 5,10 C5,12.8 7.2,15 10,15" fill="none" stroke="#FFFFFF" stroke-width="2"/>
  </g>
</svg>