<?xml version="1.0" encoding="UTF-8"?>
<svg xmlns="http://www.w3.org/2000/svg" viewBox="0 0 200 50" width="200" height="50">
  <defs>
    <linearGradient id="dishRed" x1="0%" y1="0%" x2="100%" y2="0%">
      <stop offset="0%" style="stop-color:#ED1C24"/>
      <stop offset="100%" style="stop-color:#CB1517"/>
    </linearGradient>
  </defs>
  <!-- Red background -->
  <rect x="0" y="0" width="200" height="50" rx="5" fill="url(#dishRed)"/>
  <!-- White text -->
  <g fill="#FFFFFF">
    <!-- DISH letters -->
    <path d="M50,15h12c5,0,8,3,8,8s-3,8-8,8H50V15z M60,26c2,0,3-1,3-3s-1-3-3-3h-5v6H60z"/>
    <path d="M75,15h5v16h-5V15z"/>
    <path d="M85,15h6l6,9l0-9h5v16h-6l-6-9v9h-5V15z"/>
    <path d="M110,15h5v16h-5V15z"/>
  </g>
  <!-- Satellite icon -->
  <g transform="translate(25, 25)" fill="#FFFFFF">
    <circle cx="0" cy="0" r="10" fill="none" stroke="#FFFFFF" stroke-width="2"/>
    <path d="M0,-7 L0,7" stroke="#FFFFFF" stroke-width="2"/>
    <path d="M-7,0 L7,0" stroke="#FFFFFF" stroke-width="2"/>
    <path d="M-5,-5 L5,5" stroke="#FFFFFF" stroke-width="2"/>
    <path d="M5,-5 L-5,5" stroke="#FFFFFF" stroke-width="2"/>
  </g>
  <!-- Network text -->
  <text x="150" y="35" font-family="Arial, sans-serif" font-size="12" font-weight="bold" fill="#FFFFFF">NETWORK</text>
</svg>