<?xml version="1.0" encoding="UTF-8"?>
<svg width="400" height="120" viewBox="0 0 400 120" xmlns="http://www.w3.org/2000/svg">
  <!-- Optimum Logo with more accurate proportions -->
  <g transform="translate(50, 35)">
    <!-- First O -->
    <path d="M35,0 C15.67,0 0,15.67 0,35 C0,54.33 15.67,70 35,70 C54.33,70 70,54.33 70,35 C70,15.67 54.33,0 35,0 Z M35,50 C26.72,50 20,43.28 20,35 C20,26.72 26.72,20 35,20 C43.28,20 50,26.72 50,35 C50,43.28 43.28,50 35,50 Z" fill="#000"/>
    
    <!-- p -->
    <path d="M80,10 L100,10 L100,25 C103.33,15 110,10 120,10 L120,30 C110,28 100,30 100,45 L100,70 L80,70 L80,10 Z" fill="#000"/>
    
    <!-- t -->
    <path d="M130,10 L150,10 L150,30 L170,30 L170,50 L150,50 L150,70 L130,70 L130,50 L120,50 L120,30 L130,30 L130,10 Z" fill="#000"/>
    
    <!-- i -->
    <path d="M180,10 L200,10 L200,70 L180,70 L180,10 Z" fill="#000"/>
    
    <!-- m -->
    <path d="M210,10 L230,10 L230,45 C230,48.33 232.67,50 235,50 C237.33,50 240,48.33 240,45 L240,10 L260,10 L260,45 C260,48.33 262.67,50 265,50 C267.33,50 270,48.33 270,45 L270,10 L290,10 L290,49.44 C290,62.22 280.56,71.67 267.78,71.67 C260.56,71.67 254.44,68.89 250,63.33 C245.56,68.89 239.44,71.67 232.22,71.67 C219.44,71.67 210,62.22 210,49.44 L210,10 Z" fill="#000"/>
    
    <!-- u -->
    <path d="M300,10 L320,10 L320,30 C323.33,15 330,10 340,10 C352.78,10 360,18.33 360,31.11 L360,70 L340,70 L340,35 C340,31.67 337.78,30 335,30 C332.22,30 330,31.67 330,35 L330,70 L310,70 L300,70 L300,10 Z" fill="#000"/>
    
    <!-- m (second) simplified a bit -->
    <path d="M370,10 L390,10 L390,70 L370,70 L370,10 Z" fill="#000"/>
    
    <!-- Orange Dot -->
    <circle cx="310" cy="20" r="15" fill="#FF6600"/>
  </g>
  
  <!-- authorized reseller text -->
  <path d="M115,85 L122,85 Q124,85 125,86 Q126,87 126,89 Q126,90.5 125,91.5 Q124,92.5 122,92.5 L118,92.5 L118,97 L115,97 L115,85 Z M118,87.5 L118,90 L121,90 Q121.8,90 122.15,89.65 Q122.5,89.3 122.5,88.75 Q122.5,88.2 122.15,87.85 Q121.8,87.5 121,87.5 L118,87.5 Z" fill="#000"/>
  <path d="M136,85 L134,87.5 Q132.8,86.8 131.4,86.8 Q130.6,86.8 130.05,87.25 Q129.5,87.7 129.5,88.35 Q129.5,89.6 131,90.1 L132.5,90.6 Q134.3,91.2 135.15,92.1 Q136,93 136,94.5 Q136,96.2 134.75,97.1 Q133.5,98 131.4,98 Q128.7,98 127,96.3 L129,93.8 Q130.2,94.8 131.4,94.8 Q132.3,94.8 132.9,94.35 Q133.5,93.9 133.5,93.15 Q133.5,91.9 132,91.4 L130.5,90.9 Q127,89.7 127,87 Q127,85.4 128.25,84.45 Q129.5,83.5 131.5,83.5 Q133.4,83.5 136,85 Z" fill="#000"/>
  <path d="M146,87.5 L143,87.5 L143,85 L152,85 L152,87.5 L149,87.5 L149,97 L146,97 L146,87.5 Z" fill="#000"/>
  <path d="M154,85 L157,85 L157,89.5 L161.5,89.5 L161.5,85 L164.5,85 L164.5,97 L161.5,97 L161.5,92 L157,92 L157,97 L154,97 L154,85 Z" fill="#000"/>
  <path d="M167,85 L175,85 L175,87.5 L170,87.5 L170,89.5 L175,89.5 L175,92 L170,92 L170,94.5 L175,94.5 L175,97 L167,97 L167,85 Z" fill="#000"/>
  <path d="M177,91 Q177,87.9 178.75,85.95 Q180.5,84 183.5,84 Q186.5,84 188.25,85.95 Q190,87.9 190,91 Q190,94.1 188.25,96.05 Q186.5,98 183.5,98 Q180.5,98 178.75,96.05 Q177,94.1 177,91 Z M180,91 Q180,93 181,94 Q182,95 183.5,95 Q185,95 186,94 Q187,93 187,91 Q187,89 186,88 Q185,87 183.5,87 Q182,87 181,88 Q180,89 180,91 Z" fill="#000"/>
  <path d="M192,85 L195,85 L195,94.5 L199.5,94.5 L199.5,97 L192,97 L192,85 Z" fill="#000"/>
  <path d="M201,85 L204,85 L204,97 L201,97 L201,85 Z" fill="#000"/>
  <path d="M215,85 L214,87.5 Q212.8,86.8 211.4,86.8 Q210.6,86.8 210.05,87.25 Q209.5,87.7 209.5,88.35 Q209.5,89.6 211,90.1 L212.5,90.6 Q214.3,91.2 215.15,92.1 Q216,93 216,94.5 Q216,96.2 214.75,97.1 Q213.5,98 211.4,98 Q208.7,98 207,96.3 L209,93.8 Q210.2,94.8 211.4,94.8 Q212.3,94.8 212.9,94.35 Q213.5,93.9 213.5,93.15 Q213.5,91.9 212,91.4 L210.5,90.9 Q207,89.7 207,87 Q207,85.4 208.25,84.45 Q209.5,83.5 211.5,83.5 Q213.4,83.5 215,85 Z" fill="#000"/>
  <path d="M225,85 L225,94.5 L229.5,94.5 L229.5,97 L222,97 L222,85 L225,85 Z" fill="#000"/>
  <path d="M231,85 L234,85 L234,94.5 L238.5,94.5 L238.5,97 L231,97 L231,85 Z" fill="#000"/>
  <path d="M240,85 L248,85 L248,87.5 L243,87.5 L243,89.5 L248,89.5 L248,92 L243,92 L243,94.5 L248,94.5 L248,97 L240,97 L240,85 Z" fill="#000"/>
  <path d="M250,85 L253,85 L253,94.5 L257.5,94.5 L257.5,97 L250,97 L250,85 Z" fill="#000"/>
  <path d="M259,85 L262,85 L262,97 L259,97 L259,85 Z" fill="#000"/>
  <path d="M265,91 Q265,87.9 266.75,85.95 Q268.5,84 271.5,84 Q274.5,84 276.25,85.95 Q278,87.9 278,91 Q278,94.1 276.25,96.05 Q274.5,98 271.5,98 Q268.5,98 266.75,96.05 Q265,94.1 265,91 Z M268,91 Q268,93 269,94 Q270,95 271.5,95 Q273,95 274,94 Q275,93 275,91 Q275,89 274,88 Q273,87 271.5,87 Q270,87 269,88 Q268,89 268,91 Z" fill="#000"/>
  <path d="M280,85 L283,85 L283,94.5 L287.5,94.5 L287.5,97 L280,97 L280,85 Z" fill="#000"/>
</svg>